<svg xmlns="http://www.w3.org/2000/svg" width="66.667" height="66.667" preserveAspectRatio="xMidYMid meet" version="1.0" viewBox="0 0 50 50"><g fill="#DC3545" stroke="none"><path d="M177 464 c-106 -33 -172 -150 -148 -260 30 -133 155 -207 286 -170 151 44 209 224 115 354 -52 72 -162 105 -253 76z m54 -150 l22 -37 19 23 c10 13 22 30 27 38 4 8 16 12 25 11 14 -3 12 -11 -15 -47 -34 -47 -34 -51 11 -119 21 -31 21 -33 3 -33 -10 0 -29 17 -42 37 l-24 37 -23 -30 c-13 -16 -24 -32 -24 -36 0 -5 -9 -8 -21 -8 l-21 0 22 33 c45 68 45 71 11 121 -29 42 -30 46 -12 46 12 0 28 -15 42 -36z" transform="translate(0.000000,50.000000) scale(0.100000,-0.100000)"/></g></svg>